<svg width="70" height="70" viewBox="0 0 70 70" fill="none" xmlns="http://www.w3.org/2000/svg">
<path d="M59.5083 33.3916L37.6104 12.3146C37.3012 12.017 36.9114 11.8169 36.4894 11.7393C36.0674 11.6616 35.6319 11.7097 35.237 11.8777C34.8422 12.0457 34.5055 12.3261 34.2688 12.684C34.0321 13.0419 33.9059 13.4615 33.9059 13.8906L33.9059 56.1073C33.9059 56.5364 34.0321 56.956 34.2688 57.3139C34.5055 57.6718 34.8422 57.9522 35.237 58.1202C35.6319 58.2882 36.0674 58.3364 36.4894 58.2587C36.9114 58.181 37.3012 57.9809 37.6104 57.6834L59.5083 36.6064C59.7302 36.4015 59.9073 36.153 60.0284 35.8763C60.1496 35.5997 60.2121 35.301 60.2121 34.999C60.2121 34.697 60.1496 34.3983 60.0284 34.1216C59.9073 33.845 59.7302 33.5964 59.5083 33.3916V33.3916Z" stroke="#4169C1" stroke-width="3" stroke-linecap="round" stroke-linejoin="round"/>
<path d="M21.875 10.9375L15.3125 10.9375C14.1044 10.9375 13.125 11.9169 13.125 13.125L13.125 56.875C13.125 58.0831 14.1044 59.0625 15.3125 59.0625L21.875 59.0625C23.0831 59.0625 24.0625 58.0831 24.0625 56.875L24.0625 13.125C24.0625 11.9169 23.0831 10.9375 21.875 10.9375Z" stroke="#4169C1" stroke-width="3" stroke-linecap="round" stroke-linejoin="round"/>
</svg>
