<svg width="70" height="70" viewBox="0 0 70 70" fill="none" xmlns="http://www.w3.org/2000/svg">
<path d="M24.0628 63.4375H45.9378" stroke="#4169C1" stroke-width="3" stroke-linecap="round" stroke-linejoin="round"/>
<path d="M21.8662 45.9323C19.1666 43.9086 16.9725 41.287 15.456 38.2731C13.9395 35.2592 13.1419 31.9349 13.1256 28.561C13.0601 16.7041 22.619 6.84778 34.4728 6.56878C39.1123 6.45713 43.6672 7.82383 47.4788 10.4713C51.2904 13.1188 54.1613 16.9098 55.6765 21.2963C57.1917 25.6829 57.2726 30.4376 55.9076 34.8732C54.5425 39.3088 51.8022 43.1953 48.0829 45.9709C47.4127 46.4783 46.87 47.1348 46.4976 47.8884C46.1253 48.642 45.9337 49.472 45.9379 50.3126V50.3126C45.9379 50.8928 45.7074 51.4492 45.2971 51.8594C44.8869 52.2696 44.3305 52.5001 43.7504 52.5001H26.2502C25.6701 52.5001 25.1137 52.2696 24.7034 51.8594C24.2932 51.4492 24.0627 50.8928 24.0627 50.3127V50.2507C24.057 49.4097 23.8556 48.5817 23.4743 47.8322C23.0931 47.0826 22.5425 46.4322 21.8662 45.9323V45.9323Z" stroke="#4169C1" stroke-width="3" stroke-linecap="round" stroke-linejoin="round"/>
<path d="M44.6001 26.2496C44.1867 24.4421 43.2719 22.7878 41.9608 21.4767C40.6497 20.1656 38.9954 19.2508 37.1879 18.8375" stroke="#4169C1" stroke-width="3" stroke-linecap="round" stroke-linejoin="round"/>
</svg>
